<svg xmlns="http://www.w3.org/2000/svg" viewBox="0 0 960 780" width="960" height="780">
<style>
  text { font-family: "Helvetica Neue", Helvetica, Arial, "PingFang SC", "Microsoft YaHei", "Microsoft JhengHei", "SimHei", sans-serif; }
</style>
<defs>
  <marker id="arrow-blue" markerWidth="10" markerHeight="7" refX="9" refY="3.5" orient="auto">
    <polygon points="0 0, 10 3.5, 0 7" fill="#2563eb"/>
  </marker>
  <marker id="arrow-red" markerWidth="10" markerHeight="7" refX="9" refY="3.5" orient="auto">
    <polygon points="0 0, 10 3.5, 0 7" fill="#dc2626"/>
  </marker>
  <marker id="arrow-green" markerWidth="10" markerHeight="7" refX="9" refY="3.5" orient="auto">
    <polygon points="0 0, 10 3.5, 0 7" fill="#16a34a"/>
  </marker>
  <marker id="arrow-orange" markerWidth="10" markerHeight="7" refX="9" refY="3.5" orient="auto">
    <polygon points="0 0, 10 3.5, 0 7" fill="#ea580c"/>
  </marker>
  <marker id="arrow-gray" markerWidth="10" markerHeight="7" refX="9" refY="3.5" orient="auto">
    <polygon points="0 0, 10 3.5, 0 7" fill="#6b7280"/>
  </marker>
  <filter id="shadow" x="-5%" y="-5%" width="110%" height="110%">
    <feDropShadow dx="0" dy="2" stdDeviation="3" flood-color="#000" flood-opacity="0.08"/>
  </filter>
</defs>
<rect width="960" height="780" fill="#ffffff"/>
<text x="480" y="36" text-anchor="middle" font-size="20" font-weight="600" fill="#111827">TestBrain 测试用例生成流程图</text>
<text x="480" y="56" text-anchor="middle" font-size="12" fill="#6b7280">AI驱动的智能测试用例生成与评审流程</text>
<polygon points="160,80 340,80 320,130 140,130" fill="#eff6ff" stroke="#bfdbfe" stroke-width="1.5" filter="url(#shadow)"/>
<text x="240" y="109" text-anchor="middle" font-size="13" fill="#111827">用户提交需求/PRD</text>
<polygon points="440,80 620,80 600,130 420,130" fill="#f0fdf4" stroke="#86efac" stroke-width="1.5" filter="url(#shadow)"/>
<text x="520" y="109" text-anchor="middle" font-size="13" fill="#111827">上传需求文档/PRD</text>
<polygon points="718,80 880,80 862,130 700,130" fill="#fef2f2" stroke="#fecaca" stroke-width="1.5" filter="url(#shadow)"/>
<text x="790" y="109" text-anchor="middle" font-size="13" fill="#111827">上传Java代码/接口文档</text>
<path d="M240,130 L240,165" stroke="#2563eb" stroke-width="1.5" fill="none" marker-end="url(#arrow-blue)"/>
<path d="M520,130 L520,165" stroke="#2563eb" stroke-width="1.5" fill="none" marker-end="url(#arrow-blue)"/>
<path d="M790,130 L790,165" stroke="#2563eb" stroke-width="1.5" fill="none" marker-end="url(#arrow-blue)"/>
<rect x="140" y="168" width="200" height="50" rx="8" fill="#ffffff" stroke="#d1d5db" stroke-width="1.5" filter="url(#shadow)"/>
<text x="240" y="197" text-anchor="middle" font-size="13" fill="#111827">文档解析与内容提取</text>
<rect x="420" y="168" width="200" height="50" rx="8" fill="#ffffff" stroke="#d1d5db" stroke-width="1.5" filter="url(#shadow)"/>
<text x="520" y="197" text-anchor="middle" font-size="12" fill="#111827">知识库检索</text>
<text x="520" y="211" text-anchor="middle" font-size="10" fill="#6b7280">(Milvus向量相似度检索)</text>
<rect x="700" y="168" width="200" height="50" rx="8" fill="#ffffff" stroke="#d1d5db" stroke-width="1.5" filter="url(#shadow)"/>
<text x="800" y="197" text-anchor="middle" font-size="13" fill="#111827">Java代码/接口解析</text>
<path d="M240,218 L240,255" stroke="#2563eb" stroke-width="1.5" fill="none" marker-end="url(#arrow-blue)"/>
<path d="M520,218 L520,255" stroke="#16a34a" stroke-width="1.5" fill="none" marker-end="url(#arrow-green)"/>
<path d="M800,218 L800,255" stroke="#2563eb" stroke-width="1.5" fill="none" marker-end="url(#arrow-blue)"/>
<polygon points="480,258 620,288 480,318 340,288" fill="#fefce8" stroke="#fde047" stroke-width="2" filter="url(#shadow)"/>
<text x="480" y="292" text-anchor="middle" font-size="13" font-weight="600" fill="#854d0e">选择智能体(Agent)</text>
<path d="M480,318 L480,355" stroke="#ea580c" stroke-width="1.5" fill="none" marker-end="url(#arrow-orange)"/>
<rect x="30" y="358" width="170" height="54" rx="8" fill="#faf5ff" stroke="#d8b4fe" stroke-width="1.5" filter="url(#shadow)"/>
<text x="115" y="380" text-anchor="middle" font-size="13" fill="#6b21a8">用例生成</text>
<text x="115" y="398" text-anchor="middle" font-size="11" fill="#6b7280">Agent</text>
<rect x="210" y="358" width="170" height="54" rx="8" fill="#faf5ff" stroke="#d8b4fe" stroke-width="1.5" filter="url(#shadow)"/>
<text x="295" y="380" text-anchor="middle" font-size="13" fill="#6b21a8">用例评审</text>
<text x="295" y="398" text-anchor="middle" font-size="11" fill="#6b7280">Agent</text>
<rect x="390" y="358" width="170" height="54" rx="8" fill="#faf5ff" stroke="#d8b4fe" stroke-width="1.5" filter="url(#shadow)"/>
<text x="475" y="380" text-anchor="middle" font-size="13" fill="#6b21a8">PRD分析</text>
<text x="475" y="398" text-anchor="middle" font-size="11" fill="#6b7280">Agent</text>
<rect x="570" y="358" width="170" height="54" rx="8" fill="#faf5ff" stroke="#d8b4fe" stroke-width="1.5" filter="url(#shadow)"/>
<text x="655" y="380" text-anchor="middle" font-size="13" fill="#6b21a8">接口用例</text>
<text x="655" y="398" text-anchor="middle" font-size="11" fill="#6b7280">生成Agent</text>
<rect x="750" y="358" width="170" height="54" rx="8" fill="#faf5ff" stroke="#d8b4fe" stroke-width="1.5" filter="url(#shadow)"/>
<text x="835" y="380" text-anchor="middle" font-size="13" fill="#6b21a8">Java代码</text>
<text x="835" y="398" text-anchor="middle" font-size="11" fill="#6b7280">分析Agent</text>
<path d="M115,412 L115,432" stroke="#ea580c" stroke-width="1.5" fill="none" marker-end="url(#arrow-orange)"/>
<path d="M295,412 L295,432" stroke="#ea580c" stroke-width="1.5" fill="none" marker-end="url(#arrow-orange)"/>
<path d="M475,412 L475,432" stroke="#ea580c" stroke-width="1.5" fill="none" marker-end="url(#arrow-orange)"/>
<path d="M655,412 L655,432" stroke="#ea580c" stroke-width="1.5" fill="none" marker-end="url(#arrow-orange)"/>
<path d="M835,412 L835,432" stroke="#ea580c" stroke-width="1.5" fill="none" marker-end="url(#arrow-orange)"/>
<rect x="320" y="438" width="320" height="56" rx="10" fill="#fff7ed" stroke="#fdba74" stroke-width="2" filter="url(#shadow)"/>
<text x="480" y="470" text-anchor="middle" font-size="14" font-weight="600" fill="#c2410c">LLM 模型调用</text>
<text x="480" y="486" text-anchor="middle" font-size="11" fill="#6b7280">(DeepSeek / Qwen 同步/异步调用)</text>
<path d="M310,466 L250,466" stroke="#2563eb" stroke-width="1.5" fill="none" marker-end="url(#arrow-blue)"/>
<rect x="110" y="448" width="128" height="36" rx="6" fill="#ffffff" stroke="#d1d5db" stroke-width="1"/>
<text x="174" y="462" text-anchor="middle" font-size="11" fill="#111827">组装Prompt</text>
<text x="174" y="476" text-anchor="middle" font-size="10" fill="#6b7280">(base_prompts.py)</text>
<path d="M480,494 L480,524" stroke="#2563eb" stroke-width="1.5" fill="none" marker-end="url(#arrow-blue)"/>
<rect x="140" y="524" width="240" height="50" rx="8" fill="#eff6ff" stroke="#93c5fd" stroke-width="1.5" filter="url(#shadow)"/>
<text x="260" y="553" text-anchor="middle" font-size="13" fill="#1e40af">结构化测试用例生成</text>
<text x="260" y="569" text-anchor="middle" font-size="10" fill="#6b7280">(JSON Schema格式输出)</text>
<rect x="460" y="524" width="240" height="50" rx="8" fill="#f0fdf4" stroke="#86efac" stroke-width="1.5" filter="url(#shadow)"/>
<text x="580" y="553" text-anchor="middle" font-size="13" fill="#166534">保存至数据库</text>
<text x="580" y="569" text-anchor="middle" font-size="10" fill="#6b7280">(MySQL TestCase表)</text>
<rect x="780" y="524" width="150" height="50" rx="8" fill="#fff7ed" stroke="#fdba74" stroke-width="1.5" filter="url(#shadow)"/>
<text x="855" y="553" text-anchor="middle" font-size="12" fill="#c2410c">SSE流式推送</text>
<text x="855" y="569" text-anchor="middle" font-size="10" fill="#6b7280">(实时推送进度)</text>
<path d="M385,549 L455,549" stroke="#2563eb" stroke-width="1.5" fill="none" marker-end="url(#arrow-blue)"/>
<path d="M705,549 L775,549" stroke="#6b7280" stroke-width="1.5" fill="none" stroke-dasharray="4,2" marker-end="url(#arrow-gray)"/>
<path d="M260,574 L260,604" stroke="#2563eb" stroke-width="1.5" fill="none" marker-end="url(#arrow-blue)"/>
<path d="M580,574 L580,604" stroke="#2563eb" stroke-width="1.5" fill="none" marker-end="url(#arrow-blue)"/>
<polygon points="480,604 620,634 480,664 340,634" fill="#fefce8" stroke="#fde047" stroke-width="2" filter="url(#shadow)"/>
<text x="480" y="638" text-anchor="middle" font-size="13" font-weight="600" fill="#854d0e">AI评审 / 人工评审</text>
<path d="M260,574 L260,575" stroke="#2563eb" stroke-width="1.5" fill="none"/>
<path d="M580,574 L580,575" stroke="#2563eb" stroke-width="1.5" fill="none"/>
<path d="M260,575 L480,604" stroke="#2563eb" stroke-width="1.5" fill="none" marker-end="url(#arrow-blue)"/>
<rect x="140" y="694" width="240" height="50" rx="8" fill="#f0fdf4" stroke="#4ade80" stroke-width="2" filter="url(#shadow)"/>
<text x="260" y="723" text-anchor="middle" font-size="13" font-weight="600" fill="#166534">✅ 评审通过 - 用例生效</text>
<rect x="460" y="694" width="240" height="50" rx="8" fill="#fef2f2" stroke="#fca5a5" stroke-width="2" filter="url(#shadow)"/>
<text x="580" y="723" text-anchor="middle" font-size="13" font-weight="600" fill="#991b1b">❌ 评审未通过 - 重新生成</text>
<path d="M700,719 L730,719 L730,634" stroke="#dc2626" stroke-width="1.5" fill="none" stroke-dasharray="5,3" marker-end="url(#arrow-red)"/>
<text x="735" y="711" font-size="10" fill="#dc2626">重新生成</text>
<path d="M745,719 L745,455 L645,466" stroke="#dc2626" stroke-width="1.5" fill="none" stroke-dasharray="5,3" marker-end="url(#arrow-red)"/>
<text x="748" y="500" font-size="10" fill="#dc2626">重新生成</text>
<path d="M480,664 L480,689" stroke="#2563eb" stroke-width="1.5" fill="none" marker-end="url(#arrow-blue)"/>
<path d="M390,664 L390,694" stroke="#16a34a" stroke-width="1.5" fill="none" marker-end="url(#arrow-green)"/>
<path d="M570,664 L570,694" stroke="#dc2626" stroke-width="1.5" fill="none" marker-end="url(#arrow-red)"/>
<rect x="30" y="54" width="420" height="46" rx="4" fill="#ffffff" stroke="#e5e7eb" stroke-width="1"/>
<text x="38" y="68" font-size="11" font-weight="600" fill="#6b7280">图例</text>
<line x1="50" y1="80" x2="68" y2="80" stroke="#2563eb" stroke-width="1.5" marker-end="url(#arrow-blue)"/>
<text x="72" y="84" font-size="10" fill="#6b7280">数据/请求流</text>
<line x1="130" y1="80" x2="148" y2="80" stroke="#ea580c" stroke-width="1.5" marker-end="url(#arrow-orange)"/>
<text x="152" y="84" font-size="10" fill="#6b7280">Agent调用LLM</text>
<line x1="210" y1="80" x2="228" y2="80" stroke="#16a34a" stroke-width="1.5" marker-end="url(#arrow-green)"/>
<text x="232" y="84" font-size="10" fill="#6b7280">知识库检索</text>
<line x1="290" y1="80" x2="308" y2="80" stroke="#dc2626" stroke-width="1.5" marker-end="url(#arrow-red)"/>
<text x="312" y="84" font-size="10" fill="#6b7280">回退/重新生成</text>
<line x1="370" y1="80" x2="388" y2="80" stroke="#6b7280" stroke-width="1.5" marker-end="url(#arrow-gray)"/>
<text x="392" y="84" font-size="10" fill="#6b7280">异步事件流</text>
</svg>